<?xml version="1.0" standalone="no"?>
<!DOCTYPE svg PUBLIC "-//W3C//DTD SVG 20010904//EN"
 "http://www.w3.org/TR/2001/REC-SVG-20010904/DTD/svg10.dtd">
<svg version="1.0" xmlns="http://www.w3.org/2000/svg"
 width="361.000000pt" height="361.000000pt" viewBox="0 0 361.000000 361.000000"
 preserveAspectRatio="xMidYMid meet">
<metadata>
Created by potrace 1.11, written by Peter Selinger 2001-2013
</metadata>
<g transform="translate(0.000000,361.000000) scale(0.100000,-0.100000)"
fill="#000000" stroke="none">
<path d="M1620 3599 c-167 -18 -359 -65 -485 -119 -237 -100 -429 -227 -602
-400 -283 -281 -463 -644 -517 -1045 -13 -95 -14 -397 -2 -455 3 -14 10 -52
15 -85 95 -566 481 -1075 1001 -1317 122 -57 118 -55 196 -81 95 -33 234 -65
350 -81 90 -12 400 -14 450 -3 12 3 39 8 60 12 79 12 101 16 176 36 618 157
1119 656 1284 1279 27 102 27 99 45 210 13 84 17 376 6 460 -4 30 -10 73 -13
95 -10 72 -64 266 -101 359 -43 109 -122 267 -144 286 -3 3 -8 12 -11 20 -14
37 -165 225 -250 309 -191 191 -402 326 -660 422 -89 32 -199 63 -273 75 -16
3 -57 10 -90 16 -72 13 -344 17 -435 7z"/>
</g>
</svg>
