<?xml version="1.0" encoding="UTF-8" standalone="no"?>
<!DOCTYPE svg PUBLIC "-//W3C//DTD SVG 1.1//EN" "http://www.w3.org/Graphics/SVG/1.1/DTD/svg11.dtd">
<svg width="100%" height="100%" viewBox="0 0 800 84" version="1.1" xmlns="http://www.w3.org/2000/svg" xmlns:xlink="http://www.w3.org/1999/xlink" xml:space="preserve" xmlns:serif="http://www.serif.com/" style="fill-rule:evenodd;clip-rule:evenodd;stroke-linejoin:round;stroke-miterlimit:2;">
    <g transform="matrix(1.27215,0,0,1.17967,15.0853,72.0674)">
        <g id="Artboard1">
            <g>
                <g>
                    <g transform="matrix(72,0,0,72,0,0)">
                        <path d="M0.716,-0L0.682,-0L0.477,-0.687L0.475,-0.687L0.274,-0L0.24,-0L0.028,-0.708L0.051,-0.708L0.255,-0.02L0.258,-0.02L0.459,-0.708L0.493,-0.708L0.698,-0.02L0.701,-0.02L0.905,-0.708L0.928,-0.708L0.716,-0Z" style="fill:white;fill-rule:nonzero;"/>
                    </g>
                    <g transform="matrix(72,0,0,72,67.968,0)">
                        <path d="M0.624,-0L0.54,-0.203L0.129,-0.203L0.042,-0L0.018,-0L0.325,-0.708L0.353,-0.708L0.648,-0L0.624,-0ZM0.338,-0.694L0.137,-0.222L0.533,-0.222L0.338,-0.694Z" style="fill:white;fill-rule:nonzero;"/>
                    </g>
                    <g transform="matrix(72,0,0,72,115.92,0)">
                        <path d="M0.106,-0L0.106,-0.708L0.128,-0.708L0.128,-0.02L0.48,-0.02L0.48,-0L0.106,-0Z" style="fill:white;fill-rule:nonzero;"/>
                    </g>
                    <g transform="matrix(72,0,0,72,144.864,0)">
                        <path d="M0.281,-0.688L0.281,-0L0.259,-0L0.259,-0.688L0.018,-0.688L0.018,-0.708L0.522,-0.708L0.522,-0.688L0.281,-0.688Z" style="fill:white;fill-rule:nonzero;"/>
                    </g>
                    <g transform="matrix(72,0,0,72,183.744,0)">
                        <path d="M0.106,-0L0.106,-0.708L0.518,-0.708L0.518,-0.688L0.127,-0.688L0.127,-0.377L0.495,-0.377L0.495,-0.357L0.127,-0.357L0.127,-0.02L0.534,-0.02L0.534,-0L0.106,-0Z" style="fill:white;fill-rule:nonzero;"/>
                    </g>
                    <g transform="matrix(72,0,0,72,226.224,0)">
                        <path d="M0.508,-0L0.294,-0.357L0.128,-0.357L0.128,-0L0.106,-0L0.106,-0.708L0.302,-0.708C0.328,-0.708 0.354,-0.706 0.381,-0.701C0.408,-0.696 0.432,-0.688 0.453,-0.675C0.474,-0.662 0.491,-0.644 0.504,-0.621C0.517,-0.598 0.524,-0.569 0.524,-0.533C0.524,-0.5 0.518,-0.472 0.505,-0.45C0.492,-0.428 0.476,-0.41 0.456,-0.397C0.436,-0.383 0.414,-0.373 0.39,-0.367C0.365,-0.361 0.341,-0.358 0.318,-0.358L0.533,-0L0.508,-0ZM0.502,-0.533C0.502,-0.564 0.496,-0.589 0.484,-0.61C0.472,-0.63 0.456,-0.646 0.437,-0.658C0.417,-0.669 0.394,-0.677 0.369,-0.682C0.343,-0.687 0.317,-0.689 0.29,-0.689L0.128,-0.689L0.128,-0.376L0.301,-0.376C0.366,-0.376 0.416,-0.39 0.451,-0.417C0.485,-0.444 0.502,-0.483 0.502,-0.533Z" style="fill:white;fill-rule:nonzero;"/>
                    </g>
                    <g transform="matrix(72,0,0,72,286.992,0)">
                        <path d="M0.699,-0.041C0.671,-0.026 0.636,-0.012 0.593,0.001C0.55,0.014 0.501,0.02 0.445,0.02C0.389,0.02 0.338,0.01 0.292,-0.009C0.246,-0.028 0.207,-0.055 0.174,-0.089C0.141,-0.122 0.116,-0.162 0.099,-0.208C0.081,-0.253 0.072,-0.303 0.072,-0.356C0.072,-0.409 0.081,-0.459 0.099,-0.505C0.117,-0.55 0.142,-0.59 0.175,-0.623C0.207,-0.656 0.246,-0.681 0.291,-0.7C0.336,-0.719 0.386,-0.728 0.441,-0.728C0.489,-0.728 0.533,-0.721 0.573,-0.706C0.613,-0.691 0.648,-0.671 0.679,-0.646L0.663,-0.63C0.65,-0.643 0.634,-0.654 0.617,-0.664C0.599,-0.673 0.58,-0.681 0.561,-0.688C0.541,-0.695 0.521,-0.7 0.5,-0.703C0.479,-0.706 0.459,-0.708 0.44,-0.708C0.388,-0.708 0.341,-0.699 0.298,-0.681C0.255,-0.662 0.219,-0.637 0.189,-0.605C0.158,-0.573 0.135,-0.536 0.119,-0.493C0.102,-0.45 0.094,-0.405 0.094,-0.356C0.094,-0.307 0.102,-0.261 0.118,-0.218C0.134,-0.175 0.157,-0.137 0.188,-0.105C0.218,-0.072 0.255,-0.047 0.299,-0.028C0.342,-0.009 0.392,-0 0.447,-0C0.495,-0 0.538,-0.005 0.575,-0.015C0.612,-0.025 0.647,-0.038 0.678,-0.053L0.678,-0.331L0.494,-0.331L0.494,-0.35L0.699,-0.35L0.699,-0.041Z" style="fill:white;fill-rule:nonzero;"/>
                    </g>
                    <g transform="matrix(72,0,0,72,344.232,0)">
                        <path d="M0.8,-0.354C0.8,-0.299 0.791,-0.249 0.773,-0.204C0.754,-0.158 0.729,-0.119 0.697,-0.086C0.664,-0.053 0.626,-0.027 0.581,-0.008C0.536,0.011 0.488,0.02 0.436,0.02C0.384,0.02 0.336,0.011 0.291,-0.008C0.246,-0.027 0.208,-0.053 0.176,-0.086C0.143,-0.119 0.118,-0.158 0.1,-0.204C0.081,-0.249 0.072,-0.299 0.072,-0.354C0.072,-0.409 0.081,-0.459 0.1,-0.505C0.118,-0.55 0.143,-0.59 0.176,-0.623C0.208,-0.656 0.246,-0.681 0.291,-0.7C0.335,-0.719 0.383,-0.728 0.436,-0.728C0.489,-0.728 0.537,-0.719 0.582,-0.7C0.626,-0.681 0.664,-0.656 0.697,-0.623C0.729,-0.59 0.754,-0.55 0.773,-0.505C0.791,-0.459 0.8,-0.409 0.8,-0.354ZM0.778,-0.354C0.778,-0.403 0.77,-0.45 0.753,-0.493C0.736,-0.536 0.713,-0.573 0.683,-0.605C0.652,-0.637 0.616,-0.662 0.574,-0.681C0.532,-0.699 0.486,-0.708 0.436,-0.708C0.386,-0.708 0.34,-0.699 0.298,-0.681C0.256,-0.662 0.22,-0.637 0.19,-0.605C0.159,-0.573 0.136,-0.536 0.119,-0.493C0.102,-0.45 0.094,-0.403 0.094,-0.354C0.094,-0.305 0.102,-0.259 0.119,-0.216C0.135,-0.172 0.158,-0.135 0.188,-0.103C0.218,-0.071 0.254,-0.046 0.296,-0.028C0.338,-0.009 0.385,-0 0.436,-0C0.487,-0 0.534,-0.009 0.576,-0.028C0.618,-0.046 0.654,-0.071 0.684,-0.103C0.714,-0.135 0.737,-0.172 0.754,-0.216C0.77,-0.259 0.778,-0.305 0.778,-0.354Z" style="fill:white;fill-rule:nonzero;"/>
                    </g>
                    <g transform="matrix(72,0,0,72,407.016,0)">
                        <path d="M0.508,-0L0.294,-0.357L0.128,-0.357L0.128,-0L0.106,-0L0.106,-0.708L0.302,-0.708C0.328,-0.708 0.354,-0.706 0.381,-0.701C0.408,-0.696 0.432,-0.688 0.453,-0.675C0.474,-0.662 0.491,-0.644 0.504,-0.621C0.517,-0.598 0.524,-0.569 0.524,-0.533C0.524,-0.5 0.518,-0.472 0.505,-0.45C0.492,-0.428 0.476,-0.41 0.456,-0.397C0.436,-0.383 0.414,-0.373 0.39,-0.367C0.365,-0.361 0.341,-0.358 0.318,-0.358L0.533,-0L0.508,-0ZM0.502,-0.533C0.502,-0.564 0.496,-0.589 0.484,-0.61C0.472,-0.63 0.456,-0.646 0.437,-0.658C0.417,-0.669 0.394,-0.677 0.369,-0.682C0.343,-0.687 0.317,-0.689 0.29,-0.689L0.128,-0.689L0.128,-0.376L0.301,-0.376C0.366,-0.376 0.416,-0.39 0.451,-0.417C0.485,-0.444 0.502,-0.483 0.502,-0.533Z" style="fill:white;fill-rule:nonzero;"/>
                    </g>
                    <g transform="matrix(72,0,0,72,449.784,0)">
                        <path d="M0.624,-0L0.54,-0.203L0.129,-0.203L0.042,-0L0.018,-0L0.325,-0.708L0.353,-0.708L0.648,-0L0.624,-0ZM0.338,-0.694L0.137,-0.222L0.533,-0.222L0.338,-0.694Z" style="fill:white;fill-rule:nonzero;"/>
                    </g>
                    <g transform="matrix(72,0,0,72,497.736,0)">
                        <rect x="0.106" y="-0.708" width="0.022" height="0.708" style="fill:white;fill-rule:nonzero;"/>
                    </g>
                    <g transform="matrix(72,0,0,72,514.584,0)">
                        <path d="M0.106,-0L0.106,-0.708L0.518,-0.708L0.518,-0.688L0.127,-0.688L0.127,-0.377L0.495,-0.377L0.495,-0.357L0.127,-0.357L0.127,-0.02L0.534,-0.02L0.534,-0L0.106,-0Z" style="fill:white;fill-rule:nonzero;"/>
                    </g>
                    <g transform="matrix(72,0,0,72,557.064,0)">
                        <path d="M0.551,-0.189C0.551,-0.151 0.544,-0.12 0.53,-0.096C0.515,-0.071 0.497,-0.052 0.475,-0.038C0.452,-0.024 0.428,-0.014 0.401,-0.009C0.374,-0.003 0.348,-0 0.323,-0L0.106,-0L0.106,-0.708L0.299,-0.708C0.326,-0.708 0.352,-0.705 0.379,-0.7C0.405,-0.695 0.428,-0.686 0.449,-0.673C0.47,-0.66 0.486,-0.643 0.499,-0.622C0.512,-0.601 0.518,-0.574 0.518,-0.541C0.518,-0.516 0.514,-0.494 0.506,-0.475C0.498,-0.456 0.487,-0.44 0.474,-0.427C0.46,-0.414 0.444,-0.403 0.427,-0.395C0.41,-0.386 0.392,-0.38 0.374,-0.376L0.374,-0.374C0.392,-0.372 0.411,-0.367 0.432,-0.36C0.453,-0.352 0.472,-0.341 0.49,-0.326C0.507,-0.311 0.522,-0.293 0.534,-0.27C0.545,-0.247 0.551,-0.22 0.551,-0.189ZM0.496,-0.538C0.496,-0.567 0.49,-0.591 0.479,-0.61C0.468,-0.629 0.453,-0.645 0.434,-0.656C0.415,-0.667 0.394,-0.676 0.37,-0.681C0.345,-0.686 0.32,-0.688 0.293,-0.688L0.128,-0.688L0.128,-0.383L0.298,-0.383C0.322,-0.383 0.346,-0.386 0.37,-0.392C0.393,-0.398 0.414,-0.407 0.433,-0.42C0.452,-0.432 0.467,-0.448 0.479,-0.468C0.49,-0.487 0.496,-0.511 0.496,-0.538ZM0.529,-0.186C0.529,-0.218 0.523,-0.245 0.51,-0.268C0.497,-0.291 0.48,-0.309 0.46,-0.323C0.44,-0.337 0.418,-0.347 0.394,-0.354C0.37,-0.36 0.347,-0.363 0.324,-0.363L0.128,-0.363L0.128,-0.02L0.313,-0.02C0.344,-0.02 0.372,-0.023 0.399,-0.03C0.426,-0.036 0.448,-0.046 0.468,-0.059C0.487,-0.072 0.501,-0.09 0.513,-0.111C0.524,-0.132 0.529,-0.157 0.529,-0.186Z" style="fill:white;fill-rule:nonzero;"/>
                    </g>
                </g>
            </g>
        </g>
    </g>
</svg>
